inDegrees=no
num_controls=7
num_derivatives=13
num_iterations=118
num_multipliers=7
num_parameters=0
num_slacks=7
num_states=26
objective=0.469713
objective_accelerations=0.063263
objective_balance=0.001930
objective_effort=0.020207
objective_height=0.374737
objective_ligament=0.009575
solver_duration=1752.384623
status=Solve_Succeeded
success=true
DataType=double
version=3
OpenSimVersion=4.5
endheader
time	/jointset/ground_pelvis/pelvis_tilt/value	/jointset/ground_pelvis/pelvis_tx/value	/jointset/ground_pelvis/pelvis_ty/value	/jointset/hip_l/hip_flexion_l/value	/jointset/hip_l/hip_adduction_l/value	/jointset/hip_l/hip_rotation_l/value	/jointset/back/lumbar_extension/value	/jointset/patellofemoral_l/patellar_flexion_l/value	/jointset/knee_l/knee_flexion_l/value	/jointset/knee_l/knee_adduction_l/value	/jointset/knee_l/knee_rotation_l/value	/jointset/ankle_l/ankle_angle_l/value	/jointset/subtalar_l/subtalar_angle_l/value	/jointset/ground_pelvis/pelvis_tilt/speed	/jointset/ground_pelvis/pelvis_tx/speed	/jointset/ground_pelvis/pelvis_ty/speed	/jointset/hip_l/hip_flexion_l/speed	/jointset/hip_l/hip_adduction_l/speed	/jointset/hip_l/hip_rotation_l/speed	/jointset/back/lumbar_extension/speed	/jointset/patellofemoral_l/patellar_flexion_l/speed	/jointset/knee_l/knee_flexion_l/speed	/jointset/knee_l/knee_adduction_l/speed	/jointset/knee_l/knee_rotation_l/speed	/jointset/ankle_l/ankle_angle_l/speed	/jointset/subtalar_l/subtalar_angle_l/speed	/forceset/tau_hip_flexion_l	/forceset/tau_hip_adduction_l	/forceset/tau_hip_rotation_l	/forceset/tau_knee_flexion_l	/forceset/tau_ankle_angle_l	/forceset/tau_subtalar_angle_l	/forceset/tau_lumbar_extension	lambda_cid13_p0	lambda_cid13_p1	lambda_cid13_p2	lambda_cid13_p3	lambda_cid13_p4	lambda_cid13_p5	lambda_cid14_p0	/jointset/ground_pelvis/pelvis_tilt/accel	/jointset/ground_pelvis/pelvis_tx/accel	/jointset/ground_pelvis/pelvis_ty/accel	/jointset/hip_l/hip_flexion_l/accel	/jointset/hip_l/hip_adduction_l/accel	/jointset/hip_l/hip_rotation_l/accel	/jointset/back/lumbar_extension/accel	/jointset/patellofemoral_l/patellar_flexion_l/accel	/jointset/knee_l/knee_flexion_l/accel	/jointset/knee_l/knee_adduction_l/accel	/jointset/knee_l/knee_rotation_l/accel	/jointset/ankle_l/ankle_angle_l/accel	/jointset/subtalar_l/subtalar_angle_l/accel	gamma_cid13_p0	gamma_cid13_p1	gamma_cid13_p2	gamma_cid13_p3	gamma_cid13_p4	gamma_cid13_p5	gamma_cid14_p0
0	0.0495394667043533	0.107132303375872	0.9038021421703194	0.1266922784136757	-0.3622223841137086	-0.2401354495658506	-0.2144969558742783	0.2051545070141871	0.2051545070141877	-0.1577765945292336	-0.1709143490224005	0.09024313228550125	0.08769322755551939	0	0	0	0	0	0	0	0	0	0	0	0	0	0.1163084397141293	-0.04639848537506031	-0.007006153772254706	-0.2147920607873565	0.09872240026279216	-0.07062469671099081	-0.0546235593397932	0.09961284176634921	29.14444065238532	-3.20216415074725	18.94071513028799	-450.6128645803711	-55.89893716288418	-26.49609148212926	-6.159934979788612	-2.523112662403089	-0.868490606604263	14.4745359774168	0.03357610970659867	2.456790988065039	-3.986343987369751	7.257829109048465	7.257829109048336	1.905392673158571	-0.4462894884589181	-0.3687306574934493	-0.1074549573029093	1.246869658851419e-08	1.874811624635315e-07	-3.73674344621383e-08	9.650274314472278e-09	5.391511860690989e-08	7.382737495175273e-08	2.692895825063432e-08
0.01	0.04924110870596176	0.1070076182578191	0.9037599506338468	0.1273981732797307	-0.3622200596650961	-0.2400088322128871	-0.2147007851079804	0.205507548939142	0.2055075489391504	-0.1576829430087715	-0.170929096798657	0.09022331989456309	0.08768808592315383	-0.05943174461255032	-0.02482587497567125	-0.00841380178014303	0.1405720907025723	0.000468618345994574	0.02526679361100976	-0.04048091939486928	0.07027250107420234	0.0702725010741997	0.01864090461706823	-0.002866420468579951	-0.003954723636915125	-0.001021185945576909	0.1134419661176653	-0.05597972594750507	-0.006485584032488468	-0.2122322932555193	0.09364327772218763	-0.06054603068352411	-0.05219510163775878	-0.9000148562911676	24.74639703592067	-2.277222526775935	18.67980069859272	-450.7845562887824	-64.77673608820444	-26.49578286285612	-5.798816123756862	-2.445650689756816	-0.824138353545899	13.75751361375091	0.0540387913873724	2.553133508381528	-4.03622681382191	6.86157263306698	6.861572633067058	1.830057565513361	-0.1943587003962012	-0.4076731059445287	-0.09840463233492538	9.397519948958418e-09	2.911734423106781e-07	-2.608643255579985e-08	2.267625781961732e-08	-9.213577947768917e-08	6.252651958069882e-08	4.553541623428672e-08
0.02	0.04835562887709403	0.1066380092350881	0.9036343584016078	0.1294915826522291	-0.362212942214154	-0.23963124493166	-0.215300875715285	0.2065532382801456	0.2065532382801452	-0.1574055588002237	-0.1709700168544448	0.09016419428942585	0.08767294158750252	-0.1174243660958566	-0.04898478093562427	-0.01668013915329665	0.2775029012880841	0.0009586004656499066	0.05019398565252556	-0.07925227472080058	0.1385294832068404	0.1385294832068516	0.03674653761543289	-0.005234455910706599	-0.007862642839988575	-0.002000540657147608	0.1105754925212142	-0.06556096651996367	-0.005965014292834341	-0.2096725257236577	0.08856415518158317	-0.05046736465607104	-0.04976664393571351	-1.867190574581051	20.34824319313323	-1.358629356997479	18.50126208880844	-450.3002057554831	-73.52422397961087	-26.49465258723862	-5.872110353939854	-2.389718859259409	-0.8389977252063838	13.74627995400471	0.03784886443875329	2.38887067416625	-3.644431173582189	6.854725320735611	6.854725320738769	1.798338349417864	-0.3466124831682493	-0.3593697707250716	-0.09908871050165073	6.326343309402651e-09	3.948657221578248e-07	-1.480543064946141e-08	3.570224132476236e-08	-2.381866775622882e-07	5.122566420964492e-08	6.414187421793913e-08
0.03	0.04689676071608304	0.1060300996080954	0.9034265262472791	0.1329369612254883	-0.362201043693079	-0.2390074269545367	-0.2162793609671057	0.2082718192097397	0.20827181920972	-0.1569502324810382	-0.1710335519447544	0.09006611282700029	0.08764795053321318	-0.1741130205021295	-0.07248782044157177	-0.02488473507282936	0.4109567659251839	0.001400421633333617	0.07445376172665868	-0.1161465060044879	0.2048407467296972	0.2048407467296841	0.05416510758879988	-0.007444407689888344	-0.01176666994013639	-0.003022682186453117	0.1069334554236713	-0.06152537076268737	-0.005441546888453704	-0.2067225502481197	0.08704521220053758	-0.05261900964395429	-0.04689700255041676	-2.411826417109443	21.32513919288889	-1.453919364699607	18.29258618443503	-449.5347673762514	-70.7762246553129	-26.49246296509097	-5.531800197412198	-2.314190699890479	-0.8110052568336017	13.05253475297873	0.04418511713628433	2.427168299724593	-3.667178660017784	6.467420567448191	6.467420567442646	1.69064156032167	-0.1539754474034434	-0.4078562171472192	-0.1075895562197946	2.291742095861968e-09	4.123681524820505e-07	3.815507182995343e-09	4.025868857598134e-08	-3.434751754676621e-07	2.510261598863335e-08	6.893542527832416e-08
0.04	0.04487809456832337	0.1051904407453177	0.9031366851874542	0.1376983974520066	-0.3621853596854887	-0.2381444837715399	-0.2176178404426139	0.2106431315144204	0.2106431315144194	-0.1563253154143359	-0.171118344337306	0.08992860368607426	0.08761197552721584	-0.2293839634460653	-0.09533462809262389	-0.03308192025258269	0.5407144319389249	0.001715697769135237	0.09801902682830257	-0.1512511194584124	0.2690757582280555	0.2690757582280056	0.07066468712319154	-0.009485916353480289	-0.01574817853978606	-0.004197330998749556	0.1032914183261956	-0.05748977500538949	-0.004918079483910722	-0.2037725747725428	0.08552626921952064	-0.05477065463180762	-0.04402736116509898	-2.927295460751347	22.30195573346046	-1.554940481832531	18.15945932131082	-448.1805652188638	-67.9073217463348	-26.48887975114557	-5.588568061472485	-2.2584724882803	-0.8375155772505115	13.00704022933294	0.01253985806234214	2.249968479668402	-3.28650760762967	6.439474915835944	6.439474915836579	1.614540261622806	-0.3129238600502802	-0.3748660706254034	-0.1295901670998197	-1.762723541884592e-09	4.280934725068346e-07	2.258778390052671e-08	4.46405062137173e-08	-4.479232115136703e-07	-1.326044456088698e-09	7.344417413410574e-08
0.05	0.04231317431442826	0.1041255253601457	0.9027646596715685	0.1437402064560148	-0.3621669067515181	-0.2370500119732127	-0.2192978421049661	0.2136472388963045	0.2136472388963015	-0.1555393702844833	-0.1712234247631604	0.08975113169610505	0.08756384393222066	-0.2833554548832491	-0.1175423783018208	-0.04133709461487493	0.6670399851382124	0.001977595937308706	0.1207842421036124	-0.1844656781493355	0.3314101182567862	0.3314101182567501	0.08640732738978237	-0.01146329129010766	-0.01975266214460134	-0.005426846557466553	0.09903176085057554	-0.05680995467710357	-0.00423236697787825	-0.2006013244351387	0.0829306476592835	-0.05352518532892493	-0.04081693070679512	-3.5723403935803	21.78523555489157	-1.371180526069468	17.96229531765288	-446.69958595592	-68.0718754532723	-26.48356415319327	-5.264735172692143	-2.186006727652342	-0.8216955479355794	12.35420817535819	0.03335002983949956	2.276144219294499	-3.296399770491024	6.08006183733833	6.080061837340003	1.536652444017111	-0.1301193311542645	-0.4141874010684405	-0.1193813082543332	-3.422362940889276e-09	4.234522353696204e-07	1.989066477077848e-08	4.745043372739968e-08	-5.011008141775536e-07	-1.432223110517769e-08	7.64611112962741e-08
0.06	0.03921588004859332	0.1028417163847993	0.9023096469756166	0.1510270500540446	-0.3621457677891372	-0.2357306187885678	-0.2213014833083606	0.2172646189366637	0.2172646189366665	-0.1545994934450046	-0.1713462739425188	0.08953342529095537	0.08750346737003897	-0.3358587658344768	-0.1391133461275153	-0.04967935626580594	0.78972135074276	0.002252903451265489	0.1430033040922129	-0.21597902766696	0.391730289923386	0.3917302899233605	0.1014510290499701	-0.01303966705414609	-0.02379506157576966	-0.006646324436050793	0.09477210337497871	-0.05613013434881045	-0.003546654471837076	-0.1974300740977116	0.08033502609905796	-0.05227971602603111	-0.03760650024848621	-4.191754984000109	21.26908814717921	-1.19329301647798	17.83515116345035	-444.6981450045701	-68.12411109179506	-26.47593456048964	-5.294931964281325	-2.131116011579801	-0.8549330349782657	12.27820271038493	0.01522172721901084	2.140737822326558	-2.94626577297001	6.036637243409746	6.036637243409758	1.474752540342197	-0.2327240255324843	-0.3824492358959746	-0.1275826310732509	-4.981167550894303e-09	4.1795345898348e-07	1.628957107903954e-08	5.019417639375349e-08	-5.521196617516632e-07	-2.675283991024001e-08	7.941523533450086e-08
0.07000000000000001	0.03560012452485723	0.101345393666369	0.9017705442709181	0.1595237511698818	-0.3621217735141357	-0.234192702711395	-0.2236111146392605	0.221475971974302	0.2214759719743039	-0.1535124344999494	-0.1714839970301314	0.08927537178438494	0.08743107822177827	-0.3870456833447813	-0.1600396831141664	-0.0581679776199832	0.9090034911248869	0.002550487574485316	0.1644757979714233	-0.2456792299424324	0.4502060199130414	0.4502060199130132	0.1158390578670027	-0.01444453207648752	-0.02781714003874379	-0.007825669919418653	0.09023725840574592	-0.05475579826792733	-0.002842186723880426	-0.1946112764681669	0.07868728467729943	-0.05163294200748916	-0.03426371516117996	-4.535034147683993	20.99501168380074	-1.088729512396207	17.43404847451409	-442.6583762711978	-67.61924607957738	-26.46540310237313	-4.99356126763815	-2.056655303379224	-0.8499566698972723	11.66091624844661	0.03763817287219709	2.134899594377467	-2.941696169309633	5.702880304127652	5.702880304127271	1.402649675877587	-0.08531303842462762	-0.4122936792237457	-0.1123027819121069	-5.563917467692203e-09	3.610617014952828e-07	2.485877635415012e-09	4.800740609564169e-08	-5.644750454478986e-07	-4.022169244628212e-08	7.584440251961231e-08
0.08	0.03147990190137324	0.09964315502583802	0.9011457293558259	0.1691948129988063	-0.3620946811143023	-0.2324431828106993	-0.2262097077358095	0.2262620501973181	0.2262620501973172	-0.15228513094203	-0.1716339578275267	0.08897705618763936	0.08734705716369517	-0.4367521857844205	-0.180296530547654	-0.066821798344521	1.024593493359815	0.002872528417652941	0.1853240687970029	-0.2737713807968611	0.5066753269980664	0.5066753269980365	0.129499951623788	-0.01548720901241466	-0.03184747961074186	-0.008972706400528274	0.08570241343652794	-0.05338146218704149	-0.002137718975966364	-0.1917924788386025	0.07703954325554739	-0.05098616798894174	-0.03092093007386917	-4.856256747233322	20.72197083817999	-0.9899258608522051	17.0973966537755	-440.1679850203541	-67.01104437273024	-26.45125568130356	-4.998848950148314	-1.997218100947065	-0.8879729090503751	11.53977508094517	0.02011307120857605	2.015893211600391	-2.624655488761321	5.635352662483677	5.635352662483868	1.329325528292755	-0.1602864082496186	-0.384101457700728	-0.1211208306215858	-6.08369611396061e-09	3.00854267806953e-07	-1.197604805026663e-08	4.550253818691921e-08	-5.743360121197549e-07	-5.375752844883903e-08	7.185260474645826e-08
